# xmcd
#
# Track frame offsets: 
#        150
#        15485
#        25494
#        39140
#        51661
#        65369
#        81780
#        97495
#        110555
#        125893
#        138845
#        153428
#
# Disc length: 2236 seconds
#
# Revision: 0
# Processed by: cddbd v1.5.1PL2 Copyright (c) Steve Scherf et al.
# Submitted via: ExactAudioCopy v0.95a3
#
DISCID=a608ba0c
DTITLE=Dave German - Solo
DYEAR=2003
DGENRE=Country
TTITLE0=Turn and Run
TTITLE1=Rollin' Down the Highway
TTITLE2=Spirits in the Wind
TTITLE3=Do You Love Me
TTITLE4=Since You've Been Gone
TTITLE5=Windows of a Train
TTITLE6=Endlessly For You
TTITLE7=Do You Ever Think Of Me
TTITLE8=Delta Blues
TTITLE9=Stay With Me
TTITLE10=Silvia's Song
TTITLE11=Camelot
EXTD=
EXTT0=
EXTT1=
EXTT2=
EXTT3=
EXTT4=
EXTT5=
EXTT6=
EXTT7=
EXTT8=
EXTT9=
EXTT10=
EXTT11=
PLAYORDER=
